<svg width="30" height="30" viewBox="0 0 30 30" fill="none" xmlns="http://www.w3.org/2000/svg">
<path opacity="0.4" d="M7.11396 5.37842L21.2052 0.676134C27.5322 -1.43286 30.9691 2.01964 28.8757 8.34664L24.1734 22.4379C21.0177 31.9205 15.8312 31.9205 12.6755 22.4379L11.2851 18.2511L7.09834 16.8607C-2.36872 13.7207 -2.36872 8.54973 7.11396 5.37842Z" fill="#20DC49"/>
<path d="M14.9407 14.2362L20.8927 8.26855L14.9407 14.2362Z" fill="#20DC49"/>
<path d="M14.9408 15.4079C14.6439 15.4079 14.3471 15.2986 14.1128 15.0642C13.6597 14.6112 13.6597 13.8613 14.1128 13.4083L20.0492 7.44058C20.5023 6.98754 21.2521 6.98754 21.7052 7.44058C22.1582 7.89363 22.1582 8.64349 21.7052 9.09654L15.7687 15.0642C15.5344 15.2829 15.2376 15.4079 14.9408 15.4079Z" fill="#20DC49"/>
</svg>
