<svg width="49" height="45" viewBox="0 0 49 45" fill="none" xmlns="http://www.w3.org/2000/svg">
                <g filter="url(#filter0_b_0_1)">
                <rect x="0.872498" y="0.891014" width="47.7091" height="43.2364" rx="7.15846" fill="#090B0F"/>
                </g>
                <path d="M28.5641 21.8957C28.2647 21.8957 27.9652 21.7458 27.7905 21.4834L23.7977 15.5118C23.6604 15.2994 23.6105 15.0495 23.6604 14.8122C23.7103 14.5748 23.8476 14.3499 24.0597 14.2125L31.1221 9.47759C31.6711 9.1028 32.3324 8.97788 32.9812 9.10282C33.6301 9.22775 34.1916 9.60253 34.5659 10.1522L36.8368 13.5378C37.598 14.6747 37.2985 16.2239 36.1506 16.9859L29.1007 21.7208C28.926 21.8457 28.7513 21.8957 28.5641 21.8957ZM25.8814 15.2494L28.8262 19.6595L35.1024 15.4493C35.3894 15.2619 35.4643 14.8746 35.2646 14.5998L32.9937 11.2141C32.9064 11.0767 32.7691 10.9893 32.6069 10.9518C32.4447 10.9143 32.2825 10.9518 32.1452 11.0392L25.8814 15.2494Z" fill="white"/>
                <path d="M22.2132 25.2939C21.9137 25.2939 21.6142 25.144 21.4395 24.8817L18.2452 20.1092C17.9582 19.6845 18.0705 19.0973 18.5073 18.8099L24.4716 14.8121C24.6837 14.6747 24.9333 14.6247 25.1704 14.6747C25.4199 14.7247 25.6321 14.8621 25.7693 15.0745L28.9636 19.8469C29.2506 20.2717 29.1383 20.8589 28.7016 21.1462L22.7372 25.144C22.575 25.2439 22.3878 25.2939 22.2132 25.2939ZM20.3165 19.8469L22.4627 23.0577L26.8674 20.1092L24.7212 16.886L20.3165 19.8469Z" fill="white"/>
                <path d="M16.3982 28.5172C15.6994 28.5172 15.0007 28.1799 14.5765 27.5428L13.1665 25.4439C12.8421 24.9567 12.7298 24.382 12.8421 23.8073C12.9544 23.2326 13.2788 22.7454 13.7654 22.4206L18.6941 19.1224C19.1183 18.8351 19.7048 18.9475 19.9918 19.3848L22.7868 23.5575C23.0738 23.9822 22.9615 24.5694 22.5247 24.8568L17.596 28.1549C17.2342 28.3923 16.81 28.5172 16.3982 28.5172ZM18.9561 21.1838L14.8135 23.9573C14.6763 24.0572 14.6264 24.2446 14.7262 24.3945L16.1362 26.4934C16.236 26.6308 16.4231 26.6807 16.5729 26.5808L20.7155 23.8073L18.9561 21.1838Z" fill="white"/>
                <path d="M19.2436 35.9256C19.1188 35.9256 18.9815 35.9006 18.8568 35.8381C18.3826 35.6257 18.183 35.0635 18.3951 34.6013L23.9976 22.358C24.2097 21.8833 24.7712 21.6833 25.2329 21.8957C25.707 22.1081 25.9067 22.6703 25.6945 23.1326L20.092 35.3759C19.9298 35.7257 19.5929 35.9256 19.2436 35.9256Z" fill="white"/>
                <path d="M30.3239 35.9255C29.962 35.9255 29.6251 35.7256 29.4754 35.3758L23.9353 23.1325C23.7232 22.6578 23.9353 22.1081 24.397 21.8957C24.8586 21.6833 25.4201 21.8957 25.6323 22.358L31.1724 34.6012C31.3845 35.076 31.1724 35.6257 30.7107 35.8381C30.5859 35.9005 30.4611 35.9255 30.3239 35.9255Z" fill="white"/>
                <defs>
                <filter id="filter0_b_0_1" x="-42.0782" y="-42.0597" width="133.611" height="129.138" filterUnits="userSpaceOnUse" color-interpolation-filters="sRGB">
                <feFlood flood-opacity="0" result="BackgroundImageFix"/>
                <feGaussianBlur in="BackgroundImageFix" stdDeviation="21.4754"/>
                <feComposite in2="SourceAlpha" operator="in" result="effect1_backgroundBlur_0_1"/>
                <feBlend mode="normal" in="SourceGraphic" in2="effect1_backgroundBlur_0_1" result="shape"/>
                </filter>
                </defs>
                </svg>